# xmcd
#
# Track frame offsets: 
#        150
#        37494
#        71044
#        90662
#        91219
#
# Disc length: 1225 seconds
#
# Revision: 0
# Processed by: cddbd v1.5.2PL0 Copyright (c) Steve Scherf et al.
# Submitted via: ExactAudioCopyFreeDBPlugin 1.0
#
DISCID=4104c705
DTITLE=Stevie Ray Vaughan - The Broadcast Collection 1983-'89 cd7
DYEAR=2017
DGENRE=Bluesrock
TTITLE0=Life Without You - Thank You - Announcers
TTITLE1=Come On - Love Struck Baby
TTITLE2=Rude Mood - Band Intros
TTITLE3=Announcers
TTITLE4=WMMR-FM Outro
EXTD=
EXTT0=
EXTT1=
EXTT2=
EXTT3=
EXTT4=
PLAYORDER=
